<?xml version="1.0" encoding="utf-8"?>
<!-- Generator: Adobe Illustrator 21.1.0, SVG Export Plug-In . SVG Version: 6.00 Build 0)  -->
<svg version="1.1" id="图层_1" xmlns="http://www.w3.org/2000/svg" xmlns:xlink="http://www.w3.org/1999/xlink" x="0px" y="0px"
	 viewBox="0 0 16 16" style="enable-background:new 0 0 16 16;" xml:space="preserve">
<style type="text/css">
	.st0{fill:#444444;}
</style>
<g>
	<g>
		<path class="st0" d="M8,1c3.86,0,7,3.14,7,7s-3.14,7-7,7s-7-3.14-7-7S4.14,1,8,1 M8,0C3.58,0,0,3.58,0,8s3.58,8,8,8s8-3.58,8-8
			S12.42,0,8,0L8,0z"/>
	</g>
</g>
<g>
	<path class="st0" d="M4.5,8.5h-4C0.22,8.5,0,8.28,0,8s0.22-0.5,0.5-0.5h4C4.78,7.5,5,7.72,5,8S4.78,8.5,4.5,8.5z"/>
</g>
<g>
	<path class="st0" d="M15.5,8.5h-4C11.22,8.5,11,8.28,11,8s0.22-0.5,0.5-0.5h4C15.78,7.5,16,7.72,16,8S15.78,8.5,15.5,8.5z"/>
</g>
<g>
	<path class="st0" d="M8,1c3.86,0,7,3.14,7,7s-3.14,7-7,7s-7-3.14-7-7S4.14,1,8,1 M8,0C3.58,0,0,3.58,0,8s3.58,8,8,8s8-3.58,8-8
		S12.42,0,8,0L8,0z"/>
</g>
<g>
	<path class="st0" d="M8,16c-0.28,0-0.5-0.22-0.5-0.5v-4C7.5,11.22,7.72,11,8,11s0.5,0.22,0.5,0.5v4C8.5,15.78,8.28,16,8,16z"/>
</g>
<g>
	<path class="st0" d="M8,5C7.72,5,7.5,4.78,7.5,4.5v-4C7.5,0.22,7.72,0,8,0s0.5,0.22,0.5,0.5v4C8.5,4.78,8.28,5,8,5z"/>
</g>
</svg>
