<?xml version="1.0" encoding="utf-8"?>
<!-- Generator: Adobe Illustrator 22.1.0, SVG Export Plug-In . SVG Version: 6.00 Build 0)  -->
<svg version="1.1" id="图层_1" xmlns="http://www.w3.org/2000/svg" xmlns:xlink="http://www.w3.org/1999/xlink" x="0px" y="0px"
	 viewBox="0 0 16 16" style="enable-background:new 0 0 16 16;" xml:space="preserve">
<style type="text/css">
	.st0{clip-path:url(#SVGID_2_);}
</style>
<g>
	<g>
		<defs>
			<rect id="SVGID_1_" x="1.3" y="0" width="14" height="16"/>
		</defs>
		<clipPath id="SVGID_2_">
			<use xlink:href="#SVGID_1_"  style="overflow:visible;"/>
		</clipPath>
		<path class="st0" d="M15,3.8L8.5,0.1C8.4,0,8.2,0,8,0.1L1.6,3.8C1.4,3.9,1.3,4.1,1.3,4.3v7.4c0,0.2,0.1,0.4,0.3,0.5L8,15.9
			C8.1,16,8.2,16,8.3,16c0.1,0,0.2,0,0.3-0.1l6.4-3.7c0.2-0.1,0.3-0.3,0.3-0.5V4.3C15.2,4.1,15.1,3.9,15,3.8L15,3.8z M14.2,11.4
			l-5.9,3.4l-5.9-3.4V4.6l5.9-3.4l5.9,3.4V11.4z M14.2,11.4"/>
	</g>
	<path d="M3.9,5.6C3.7,5.9,3.8,6.2,4,6.4l3.7,2.1v4.2c0,0.3,0.2,0.5,0.5,0.5c0.3,0,0.5-0.2,0.5-0.5V8.5l3.7-2.1
		c0.3-0.1,0.3-0.5,0.2-0.7c-0.1-0.3-0.5-0.3-0.7-0.2L8.3,7.6L4.6,5.5C4.3,5.3,4,5.4,3.9,5.6L3.9,5.6z M3.9,5.6"/>
</g>
</svg>
