<?xml version="1.0" encoding="utf-8"?>
<!-- Generator: Adobe Illustrator 22.1.0, SVG Export Plug-In . SVG Version: 6.00 Build 0)  -->
<svg version="1.1" id="图层_1" xmlns="http://www.w3.org/2000/svg" xmlns:xlink="http://www.w3.org/1999/xlink" x="0px" y="0px"
	 viewBox="0 0 16 16" style="enable-background:new 0 0 16 16;" xml:space="preserve">
<style type="text/css">
	.st0{fill:#231815;}
</style>
<g>
	<path class="st0" d="M1.4,7h4.2C6.4,7,7,6.4,7,5.6V2.4C7,1.7,6.4,1,5.6,1H1.4C0.6,1,0,1.7,0,2.4v3.2C0,6.4,0.6,7,1.4,7z M1,2.4
		C1,2.2,1.2,2,1.4,2h4.2C5.8,2,6,2.2,6,2.4v3.2C6,5.8,5.8,6,5.6,6H1.4C1.2,6,1,5.8,1,5.6V2.4z"/>
	<path class="st0" d="M14.6,8.9H1.4C0.6,8.9,0,9.5,0,10.3v3.2c0,0.8,0.6,1.4,1.4,1.4h13.2c0.8,0,1.4-0.6,1.4-1.4v-3.2
		C16,9.5,15.4,8.9,14.6,8.9z M15,13.5c0,0.2-0.2,0.4-0.4,0.4H1.4c-0.2,0-0.4-0.2-0.4-0.4v-3.2c0-0.2,0.2-0.4,0.4-0.4h13.2
		c0.2,0,0.4,0.2,0.4,0.4V13.5z"/>
	<path class="st0" d="M14.6,1h-4.2C9.6,1,9,1.7,9,2.4v3.2C9,6.4,9.6,7,10.4,7h4.2C15.4,7,16,6.4,16,5.6V2.4C16,1.7,15.4,1,14.6,1z
		 M15,5.6C15,5.8,14.8,6,14.6,6h-4.2C10.2,6,10,5.8,10,5.6V2.4C10,2.2,10.2,2,10.4,2h4.2C14.8,2,15,2.2,15,2.4V5.6z"/>
</g>
</svg>
