<?xml version="1.0" encoding="UTF-8"?>
<svg width="24px" height="24px" viewBox="0 0 24 24" version="1.1" xmlns="http://www.w3.org/2000/svg" xmlns:xlink="http://www.w3.org/1999/xlink">
    <!-- Generator: Sketch 51.3 (57544) - http://www.bohemiancoding.com/sketch -->
    <title>Shape</title>
    <desc>Created with Sketch.</desc>
    <defs></defs>
    <g id="Symbols" stroke="none" stroke-width="1" fill="none" fill-rule="evenodd">
        <g id="次标题栏---1920" transform="translate(-1811.000000, -18.000000)" fill="#C4C6CC" fill-rule="nonzero">
            <g id="SaaS标题栏">
                <g id="个人设置" transform="translate(1729.000000, 18.000000)">
                    <path d="M94,0 C87.3785714,0 82,5.37857143 82,12 C82,18.6214286 87.3785714,24 94,24 C100.621429,24 106,18.6214286 106,12 C106,5.37857143 100.621429,0 94,0 Z M91.007295,8.39566461 C91.1129801,6.70942584 92.4868855,5.36043482 94.177846,5.25504489 C96.1435875,5.14965497 97.75,6.70942584 97.75,8.62752245 C97.75,10.4823851 96.2281356,12 94.368079,12 C92.4234745,12 90.880473,10.3559172 91.007295,8.39566461 Z M100.75,18.1432584 C100.75,18.4803371 100.496479,18.75 100.179577,18.75 L87.8204225,18.75 C87.5035211,18.75 87.25,18.4803371 87.25,18.1432584 L87.25,16.3455056 C87.25,13.9634831 91.75,12.75 93.9894366,12.75 C96.2288732,12.75 100.728873,13.9410112 100.728873,16.3455056 L100.75,18.1432584 Z" id="Shape"></path>
                </g>
            </g>
        </g>
    </g>
</svg>