<?xml version="1.0" encoding="UTF-8"?>
<svg width="13px" height="17px" viewBox="0 0 13 17" version="1.1" xmlns="http://www.w3.org/2000/svg" xmlns:xlink="http://www.w3.org/1999/xlink">
    <!-- Generator: Sketch 51.3 (57544) - http://www.bohemiancoding.com/sketch -->
    <title>Shape</title>
    <desc>Created with Sketch.</desc>
    <defs></defs>
    <g id="Symbols" stroke="none" stroke-width="1" fill="none" fill-rule="evenodd">
        <g id="次标题栏---1920" transform="translate(-1772.000000, -21.000000)" fill="#63656E" fill-rule="nonzero">
            <g id="SaaS标题栏">
                <g id="个人设置" transform="translate(1729.000000, 18.000000)">
                    <path d="M55.3922078,16.5051948 L54.9363636,16.5051948 L54.9363636,10.0474026 C54.9363636,7.36741883 52.9553409,5.15087662 50.3779221,4.7824026 L50.3779221,4.04545455 C50.3779221,3.62569805 50.0379383,3.28571429 49.6181818,3.28571429 C49.1984253,3.28571429 48.8584416,3.62569805 48.8584416,4.04545455 L48.8584416,4.7824026 C46.2810227,5.15087662 44.3,7.36741883 44.3,10.0474026 L44.3,16.5051948 L43.8441558,16.5051948 C43.5079708,16.5051948 43.2363636,16.7768019 43.2363636,17.112987 L43.2363636,17.7207792 C43.2363636,17.8043506 43.3047403,17.8727273 43.3883117,17.8727273 L47.4909091,17.8727273 C47.4909091,19.046526 48.4443831,20 49.6181818,20 C50.7919805,20 51.7454545,19.046526 51.7454545,17.8727273 L55.8480519,17.8727273 C55.9316234,17.8727273 56,17.8043506 56,17.7207792 L56,17.112987 C56,16.7768019 55.7283929,16.5051948 55.3922078,16.5051948 Z M49.6181818,18.7844156 C49.1148539,18.7844156 48.7064935,18.3760552 48.7064935,17.8727273 L50.5298701,17.8727273 C50.5298701,18.3760552 50.1215097,18.7844156 49.6181818,18.7844156 Z" id="Shape"></path>
                </g>
            </g>
        </g>
    </g>
</svg>