<?xml version="1.0" encoding="utf-8"?>
<!-- Generator: Adobe Illustrator 22.1.0, SVG Export Plug-In . SVG Version: 6.00 Build 0)  -->
<svg version="1.1" id="图层_1" xmlns="http://www.w3.org/2000/svg" xmlns:xlink="http://www.w3.org/1999/xlink" x="0px" y="0px"
	 viewBox="0 0 16 16" style="enable-background:new 0 0 16 16;" xml:space="preserve">
<style type="text/css">
	.st0{fill:#1B7CEF;}
</style>
<g>
	<g>
		<g>
			<path class="st0" d="M4,4.1C4.4,4,4.9,4.2,5.1,4.6c0,0,0.1-0.2,0-0.2c0.1-0.4,0.3-0.7,0.6-1c0.1-0.1,0.1-0.5,0.1-0.6
				c0-0.1-0.1-0.6-0.1-0.6C5.3,2.5,5.2,2.9,5.1,3.5c0-0.1,0-0.1,0-0.2C4.9,3,4.4,2.8,4,2.9C3.8,2.9,4,4.1,4,4.1L4,4.1z"/>
		</g>
		<g>
			<path class="st0" d="M13.6,12.3c-2.4,0-4.7,0-7.1,0c-0.9,0-1.8,0.1-2.7,0c-2.1-0.1-2.4-2.5-1.9-4.1c0.3-1.1,0.9-2.5,2-3
				C4.4,5,5,5,5.5,5c2,0.1,3.3,1.8,3.5,3.7c0.2,1.7,1.1,3.6,3.1,3.3c1.2-0.2,2.4-1.4,2.8-2.5c0.4-1.1,0-2.4-0.7-3.3
				c-0.4-0.5-0.9-0.9-1.5-1.1c-0.3-0.1-0.4-0.1-0.5-0.3C12,4.7,12.1,4.4,12,4.1c-0.4-1.2-1.7-1.9-3-1.7C8.1,2.6,7.4,3.4,6.8,4.1
				C6.3,4.6,7.2,3.9,7.3,3.7c0.4-0.4,1.3-0.5,1.8-0.4c0.6,0.1,1.2,0.5,1.6,1c0.3,0.4,0.4,0.8,0.4,1.2c0,0.4,0,0.3,0.3,0.4
				c0.2,0.1,0.5,0.2,0.7,0.3c0.9,0.5,1.6,1.4,1.8,2.5c0.1,0.5,0.1,1.2-0.1,1.7c-0.2,0.6-0.2,0.5-0.7,0.6c-2.1,0.6-3.2-1.5-3.4-3.2
				C9.7,6.1,8.5,4.4,6.7,4.1c-2.8-0.4-5,2.7-5.7,5c-0.5,1.6-0.2,3.9,1.9,4c0.7,0.1,1.4,0,2.1,0c2.6,0,5.2,0,7.7,0
				C13,13.2,13.4,12.3,13.6,12.3L13.6,12.3z"/>
		</g>
	</g>
</g>
</svg>
