<?xml version="1.0" encoding="utf-8"?>
<!-- Generator: Adobe Illustrator 22.1.0, SVG Export Plug-In . SVG Version: 6.00 Build 0)  -->
<svg version="1.1" id="图层_1" xmlns="http://www.w3.org/2000/svg" xmlns:xlink="http://www.w3.org/1999/xlink" x="0px" y="0px"
	 viewBox="0 0 16 16" style="enable-background:new 0 0 16 16;" xml:space="preserve">
<g>
	<g>
		<path d="M8,0.4c-4.3,0-7.7,3.5-7.7,7.7c0,4.3,3.5,7.7,7.7,7.7c4.3,0,7.7-3.5,7.7-7.7C15.8,3.9,12.3,0.4,8,0.4L8,0.4z M8,14.6
			c-3.5,0-6.4-2.9-6.4-6.4c0-3.5,2.9-6.4,6.4-6.4c3.5,0,6.4,2.9,6.4,6.4C14.5,11.7,11.6,14.6,8,14.6L8,14.6z M11,10L8.4,8.5V4.3
			c0-0.4-0.3-0.6-0.6-0.6c-0.4,0-0.6,0.3-0.6,0.6v4.5c0,0.2,0.3,0.4,0.5,0.5c0.1,0.1,0.2,0.2,0.3,0.2l2.7,1.6
			c0.3,0.2,0.6,0.1,0.8-0.2C11.5,10.6,11.3,10.2,11,10L11,10z M11,10"/>
	</g>
</g>
</svg>
