<?xml version="1.0" encoding="utf-8"?>
<!-- Generator: Adobe Illustrator 21.1.0, SVG Export Plug-In . SVG Version: 6.00 Build 0)  -->
<svg version="1.1" id="图层_1" xmlns="http://www.w3.org/2000/svg" xmlns:xlink="http://www.w3.org/1999/xlink" x="0px" y="0px"
	 viewBox="0 0 16 16" style="enable-background:new 0 0 16 16;" xml:space="preserve">
<style type="text/css">
	.st0{fill:#444444;}
</style>
<path class="st0" d="M8,1C4.13,1,1,4.13,1,8c0,3.87,3.13,7,7,7s7-3.13,7-7C15,4.13,11.87,1,8,1z M10.83,10.12
	c0.2,0.2,0.2,0.51,0,0.71c-0.2,0.2-0.51,0.2-0.71,0L8,8.71l-2.12,2.12c-0.2,0.2-0.51,0.2-0.71,0c-0.2-0.2-0.2-0.51,0-0.71L7.29,8
	L5.17,5.88c-0.2-0.2-0.2-0.51,0-0.71s0.51-0.2,0.71,0L8,7.29l2.12-2.12c0.2-0.2,0.51-0.2,0.71,0s0.2,0.51,0,0.71L8.71,8L10.83,10.12
	z"/>
</svg>
