<?xml version="1.0" encoding="utf-8"?>
<!-- Generator: Adobe Illustrator 22.1.0, SVG Export Plug-In . SVG Version: 6.00 Build 0)  -->
<svg version="1.1" id="图层_1" xmlns="http://www.w3.org/2000/svg" xmlns:xlink="http://www.w3.org/1999/xlink" x="0px" y="0px"
	 viewBox="0 0 16 16" style="enable-background:new 0 0 16 16;" xml:space="preserve">
<style type="text/css">
	.st0{fill:#444444;}
</style>
<path class="st0" d="M15.5,16c-0.1,0-0.3,0-0.4-0.1L8,8.7l-7.1,7.1c-0.2,0.2-0.5,0.2-0.7,0s-0.2-0.5,0-0.7L7.3,8L0.1,0.9
	C0,0.7,0,0.3,0.1,0.1s0.5-0.2,0.7,0L8,7.3l7.1-7.1c0.2-0.2,0.5-0.2,0.7,0s0.2,0.5,0,0.7L8.7,8l7.1,7.1c0.2,0.2,0.2,0.5,0,0.7
	C15.8,16,15.6,16,15.5,16z"/>
</svg>
