<?xml version="1.0" encoding="utf-8"?>
<!-- Generator: Adobe Illustrator 22.1.0, SVG Export Plug-In . SVG Version: 6.00 Build 0)  -->
<svg version="1.1" id="图层_1" xmlns="http://www.w3.org/2000/svg" xmlns:xlink="http://www.w3.org/1999/xlink" x="0px" y="0px"
	 viewBox="0 0 16 16" style="enable-background:new 0 0 16 16;" xml:space="preserve">
<style type="text/css">
	.st0{clip-path:url(#SVGID_2_);}
</style>
<g>
	<g>
		<defs>
			<rect id="SVGID_1_" x="0.7" y="0.4" width="13.8" height="15.5"/>
		</defs>
		<clipPath id="SVGID_2_">
			<use xlink:href="#SVGID_1_"  style="overflow:visible;"/>
		</clipPath>
		<path class="st0" d="M11.2,0.4h-7c-0.7,0-1.2,0.6-1.2,1.2v1H2c-0.7,0-1.2,0.6-1.2,1.2v10.7c0,0.7,0.6,1.2,1.2,1.2h9.1
			c0.7,0,1.2-0.6,1.2-1.2v-1h1c0.7,0,1.2-0.6,1.2-1.2V3.7L11.2,0.4z M11.2,2.1l1.5,1.5h-1.5V2.1z M11.1,14.6H2V3.8h1v8.5
			c0,0.7,0.6,1.2,1.2,1.2h6.9V14.6z M13.3,12.3H4.2V1.6H10v2.7c0,0.2,0.1,0.3,0.2,0.4c0.1,0.1,0.3,0.2,0.4,0.2h2.7V12.3z M13.3,12.3
			"/>
	</g>
	<path d="M6,6.6h3.3c0.3,0,0.6-0.2,0.6-0.6c0-0.3-0.2-0.6-0.6-0.6H6C5.6,5.4,5.4,5.7,5.4,6C5.4,6.3,5.6,6.6,6,6.6L6,6.6z M10.5,7.5
		H5.9c-0.3,0-0.5,0.2-0.5,0.5c0,0.3,0.3,0.6,0.6,0.6h4.6c0.1,0,0.3-0.1,0.4-0.2c0.1-0.1,0.2-0.2,0.2-0.4v0c0-0.1-0.1-0.3-0.2-0.4
		C10.8,7.6,10.7,7.5,10.5,7.5L10.5,7.5z M9.3,9.6H6c-0.3,0-0.6,0.2-0.6,0.6c0,0.3,0.2,0.6,0.6,0.6h3.3c0.3,0,0.6-0.2,0.6-0.6
		C9.8,9.8,9.6,9.6,9.3,9.6L9.3,9.6z M9.3,9.6"/>
</g>
</svg>
