<?xml version="1.0" encoding="utf-8"?>
<!-- Generator: Adobe Illustrator 22.1.0, SVG Export Plug-In . SVG Version: 6.00 Build 0)  -->
<svg version="1.1" id="图层_1" xmlns="http://www.w3.org/2000/svg" xmlns:xlink="http://www.w3.org/1999/xlink" x="0px" y="0px"
	 viewBox="0 0 16 16" style="enable-background:new 0 0 16 16;" xml:space="preserve">
<style type="text/css">
	.st0{clip-path:url(#SVGID_2_);fill:#5A5A68;}
	.st1{fill:#5A5A68;}
</style>
<g>
	<g>
		<g>
			<defs>
				<rect id="SVGID_1_" x="6.8" y="0" width="8.2" height="16"/>
			</defs>
			<clipPath id="SVGID_2_">
				<use xlink:href="#SVGID_1_"  style="overflow:visible;"/>
			</clipPath>
			<path class="st0" d="M7,1.1C6.7,0.9,6.7,0.4,7,0.2c0.3-0.3,0.8-0.3,1.1,0l6.6,7.3c0.3,0.3,0.3,0.8,0,1.1l-6.6,7.3
				c-0.3,0.3-0.8,0.3-1.1,0c-0.3-0.3-0.3-0.7,0-0.9L13.2,8L7,1.1z M13.2,8"/>
		</g>
	</g>
	<path class="st1" d="M1,1.1C0.7,0.9,0.7,0.4,1,0.2c0.3-0.3,0.8-0.3,1.1,0l6.6,7.3C9,7.8,9,8.2,8.7,8.5L2,15.8
		c-0.3,0.3-0.8,0.3-1.1,0c-0.3-0.3-0.3-0.7,0-0.9L7.2,8L1,1.1z M7.2,8"/>
</g>
</svg>
