<?xml version="1.0" encoding="utf-8"?>
<!-- Generator: Adobe Illustrator 21.1.0, SVG Export Plug-In . SVG Version: 6.00 Build 0)  -->
<svg version="1.1" id="图层_1" xmlns="http://www.w3.org/2000/svg" xmlns:xlink="http://www.w3.org/1999/xlink" x="0px" y="0px"
	 viewBox="0 0 16 16" style="enable-background:new 0 0 16 16;" xml:space="preserve">
<style type="text/css">
	.st0{clip-path:url(#SVGID_2_);}
</style>
<g>
	<g>
		<defs>
			<rect id="SVGID_1_" x="0" width="16" height="16"/>
		</defs>
		<clipPath id="SVGID_2_">
			<use xlink:href="#SVGID_1_"  style="overflow:visible;"/>
		</clipPath>
		<path class="st0" d="M15.7,8.5l-2.3,2.3c-0.1,0.1-0.3,0.1-0.4,0l-0.4-0.4c-0.1-0.1-0.1-0.3,0-0.4l1.5-1.5H8.5v5.8l1.5-1.5
			c0.1-0.1,0.3-0.1,0.4,0l0.4,0.4c0.1,0.1,0.1,0.3,0,0.4l-2.3,2.3c0,0-0.3,0.3-0.5,0.3c-0.2,0-0.4-0.3-0.5-0.3l-2.3-2.3
			c-0.1-0.1-0.1-0.3,0-0.4l0.4-0.4c0.1-0.1,0.3-0.1,0.4,0l1.5,1.5V8.5H1.7L3.2,10c0.1,0.1,0.1,0.3,0,0.4l-0.4,0.4
			c-0.1,0.1-0.3,0.1-0.4,0L0.3,8.5C0.3,8.5,0,8.2,0,8c0-0.2,0.3-0.4,0.3-0.5l2.3-2.3c0.1-0.1,0.3-0.1,0.4,0l0.4,0.4
			c0.1,0.1,0.1,0.3,0,0.4L1.7,7.5h5.8V1.7L6,3.2c-0.1,0.1-0.3,0.1-0.4,0L5.3,2.9c-0.1-0.1-0.1-0.3,0-0.4l2.3-2.3C7.5,0.3,7.8,0,8,0
			c0.2,0,0.4,0.3,0.5,0.3l2.3,2.3c0.1,0.1,0.1,0.3,0,0.4l-0.4,0.4c-0.1,0.1-0.3,0.1-0.4,0L8.5,1.7v5.8h5.8L12.7,6
			c-0.1-0.1-0.1-0.3,0-0.4l0.4-0.4c0.1-0.1,0.3-0.1,0.4,0l2.3,2.3c0,0,0.3,0.3,0.3,0.5C16,8.2,15.7,8.4,15.7,8.5L15.7,8.5z
			 M15.7,8.5"/>
	</g>
</g>
</svg>
