<?xml version="1.0" encoding="utf-8"?>
<!-- Generator: Adobe Illustrator 22.1.0, SVG Export Plug-In . SVG Version: 6.00 Build 0)  -->
<svg version="1.1" id="图层_1" xmlns="http://www.w3.org/2000/svg" xmlns:xlink="http://www.w3.org/1999/xlink" x="0px" y="0px"
	 viewBox="0 0 16 16" style="enable-background:new 0 0 16 16;" xml:space="preserve">
<style type="text/css">
	.st0{clip-path:url(#SVGID_2_);fill:#1D2C68;}
</style>
<g>
	<g>
		<defs>
			<rect id="SVGID_1_" x="1.7" y="1.9" width="12.9" height="12.3"/>
		</defs>
		<clipPath id="SVGID_2_">
			<use xlink:href="#SVGID_1_"  style="overflow:visible;"/>
		</clipPath>
		<path class="st0" d="M14.5,5.7L13.8,5c-0.2-0.2-0.6-0.2-0.8,0.1l-5.5,5.5c-0.2,0.2-0.3,0.6-0.1,0.8l0.7,0.7
			c0.2,0.2,0.6,0.2,0.8-0.1l5.5-5.5C14.7,6.3,14.7,5.9,14.5,5.7L14.5,5.7z M8.7,12.8L8.7,12.8L6.4,14h4.6c0.3,0,0.6-0.3,0.6-0.6V9.8
			l-2.8,2.8C8.8,12.7,8.8,12.7,8.7,12.8L8.7,12.8z M6.7,11c0-0.1,0.1-0.2,0.2-0.3L11.7,6V2.5c0-0.3-0.3-0.6-0.6-0.6H2.4
			C2,1.9,1.7,2.2,1.7,2.5v10.9C1.7,13.7,2,14,2.4,14h3.1L6.7,11L6.7,11z M3.3,2.8h6.5c0.3,0,0.6,0.2,0.6,0.4c0,0.2-0.3,0.4-0.6,0.4
			H3.3C3,3.6,2.7,3.4,2.7,3.2C2.7,3,3,2.8,3.3,2.8L3.3,2.8z M3.3,4.9h6.5c0.3,0,0.6,0.2,0.6,0.4c0,0.2-0.3,0.4-0.6,0.4H3.3
			C3,5.7,2.7,5.5,2.7,5.3C2.7,5,3,4.9,3.3,4.9L3.3,4.9z M3.3,7.8C3,7.8,2.7,7.6,2.7,7.4S3,7,3.3,7h4C7.7,7,8,7.1,8,7.4
			c0,0.2-0.3,0.4-0.6,0.4H3.3z M6.8,11.4l-1.2,2.7l2.6-1.3L6.8,11.4z M6.8,11.4"/>
	</g>
</g>
</svg>
