<?xml version="1.0" encoding="utf-8"?>
<!-- Generator: Adobe Illustrator 21.1.0, SVG Export Plug-In . SVG Version: 6.00 Build 0)  -->
<svg version="1.1" id="图层_1" xmlns="http://www.w3.org/2000/svg" xmlns:xlink="http://www.w3.org/1999/xlink" x="0px" y="0px"
	 viewBox="0 0 16 16" style="enable-background:new 0 0 16 16;" xml:space="preserve">
<g>
	<path d="M8,12.2c2.9,0,6.8-3,7.1-3.8C15,7.6,11.3,4.3,8,4.3c-3.1,0-7.1,2.6-7.1,4.1C1,9.2,4.8,12.2,8,12.2 M8,13
		c-3.3,0-7.9-3.1-7.9-4.5c0-2.3,4.6-4.9,7.9-4.9c3.6,0,7.9,3.5,7.9,4.9C15.8,9.7,11.1,13,8,13L8,13z"/>
	<path d="M8,10.2c1.1,0,2-0.9,2-2s-0.9-2-2-2s-2,0.9-2,2S6.9,10.2,8,10.2 M8,11c-1.5,0-2.8-1.2-2.8-2.8c0-1.5,1.2-2.8,2.8-2.8
		s2.8,1.2,2.8,2.8C10.7,9.8,9.5,11,8,11L8,11z"/>
</g>
</svg>
