<?xml version="1.0" encoding="utf-8"?>
<!-- Generator: Adobe Illustrator 21.1.0, SVG Export Plug-In . SVG Version: 6.00 Build 0)  -->
<svg version="1.1" id="图层_1" xmlns="http://www.w3.org/2000/svg" xmlns:xlink="http://www.w3.org/1999/xlink" x="0px" y="0px"
	 viewBox="0 0 760.3 760.3" style="enable-background:new 0 0 760.3 760.3;" xml:space="preserve">
<style type="text/css">
	.st0{clip-path:url(#SVGID_2_);}
</style>
<g>
	<g>
		<g>
			<defs>
				<rect id="SVGID_1_" x="0.5" y="254" width="759.8" height="321.7"/>
			</defs>
			<clipPath id="SVGID_2_">
				<use xlink:href="#SVGID_1_"  style="overflow:visible;"/>
			</clipPath>
			<path class="st0" d="M443.3,490.5c-20,2.4-41.2,4-63.1,4c-22,0-43.2-1.6-63.1-4l-17.2,68.7c-2.4,9.2-10.4,15.2-19.2,15.2
				c-1.6,0-3.2-0.4-4.8-0.4c-9.2-2.4-15.2-10.4-15.2-19.6c0-1.6,0.4-3.2,0.8-4.8l16.4-65.9c-54.7-12-101.5-32.8-140.7-57.5l-40,59.5
				c-4,6-10,8.8-16.8,8.8c-4,0-7.6-1.2-11.2-3.2c-6-4-8.8-10.4-8.8-16.8c0-4,1.2-7.6,3.2-11.2l40-59.9c0-0.4,0.4-0.4,0.4-0.8
				C53.7,363.4,19.7,318.3,2.5,283.5c-4.8-10-0.8-22,8.8-26.8c10-4.8,22-0.8,26.8,8.8c35.2,70.3,146.7,189,342.1,189
				c195.4,0,306.9-118.7,341.7-188.6c4.8-10,16.8-13.6,26.8-8.8c10,4.8,14,16.8,8.8,26.8c-17.2,34.4-50.8,79.5-101.5,119.1
				c0,0.4,0.4,0.4,0.4,0.8l40,59.9c2.4,3.2,3.2,7.2,3.2,11.2c0,6.4-3.2,12.8-8.8,16.8c-3.6,2.4-7.2,3.2-11.2,3.2
				c-6.4,0-12.8-3.2-16.8-8.8l-40-59.5c-38.8,24.8-85.9,46-140.7,57.5l16.4,65.9c0.4,1.6,0.8,3.2,0.8,4.8c0,9.2-6,17.2-15.2,19.6
				c-1.6,0.4-3.2,0.4-4.8,0.4c-9.2,0-17.2-6-19.2-15.2L443.3,490.5z"/>
		</g>
	</g>
</g>
</svg>
