<?xml version="1.0" encoding="utf-8"?>
<!-- Generator: Adobe Illustrator 22.1.0, SVG Export Plug-In . SVG Version: 6.00 Build 0)  -->
<svg version="1.1" xmlns="http://www.w3.org/2000/svg" xmlns:xlink="http://www.w3.org/1999/xlink" x="0px" y="0px"
	 viewBox="0 0 16 16" style="enable-background:new 0 0 16 16;" xml:space="preserve">
<style type="text/css">
	.st0{display:none;}
	.st1{display:inline;}
	.st2{fill:#FF0015;enable-background:new    ;}
	.st3{fill:#007AFF;}
</style>
<g id="图层_1" class="st0">
	<g class="st1">
		<path class="st2" d="M8,0C7.1,0,6.4,0.7,6.4,1.6c0,0.9,0.7,1.6,1.6,1.6s1.6-0.7,1.6-1.6C9.6,0.7,8.9,0,8,0z"/>
		<path class="st2" d="M8,12.9c-0.9,0-1.6,0.7-1.6,1.5C6.4,15.3,7.1,16,8,16s1.6-0.7,1.6-1.6C9.6,13.5,8.9,12.9,8,12.9z"/>
		<path class="st2" d="M14.4,6.4c-0.9,0-1.5,0.7-1.5,1.6s0.7,1.6,1.6,1.6S16,8.9,16,8S15.3,6.4,14.4,6.4z"/>
		<path class="st2" d="M3.1,8c0-0.9-0.7-1.6-1.5-1.6C0.8,6.4,0,7.1,0,8s0.7,1.6,1.6,1.6C2.5,9.6,3.1,8.9,3.1,8z"/>
		<path class="st2" d="M13.7,4.6c0.6-0.6,0.6-1.6,0-2.2c-0.6-0.6-1.6-0.6-2.2,0c-0.6,0.6-0.6,1.6,0,2.2C12,5.2,13,5.2,13.7,4.6z"/>
		<path class="st2" d="M3.5,11c-0.9,0-1.6,0.7-1.6,1.5c0,0.9,0.7,1.6,1.6,1.6S5,13.4,5,12.5C5,11.7,4.3,11,3.5,11z"/>
		<path class="st2" d="M12.6,10.9c-0.9,0-1.6,0.8-1.6,1.6c0,0.9,0.7,1.6,1.6,1.6c0.9,0,1.6-0.7,1.6-1.6S13.5,10.9,12.6,10.9z"/>
		<path class="st2" d="M3.5,1.9c-0.8,0-1.6,0.7-1.6,1.6C1.9,4.3,2.6,5,3.5,5S5,4.3,5,3.5S4.3,1.9,3.5,1.9z"/>
	</g>
</g>
<g id="图层_2">
	<g>
		<circle class="st3" cx="8" cy="1.6" r="1.6"/>
		<path class="st3" d="M2.4,2.3C1.8,3,1.8,4,2.4,4.6C3,5.2,4,5.2,4.6,4.6C5.3,4,5.3,3,4.6,2.3C4,1.7,3,1.7,2.4,2.3z"/>
		<circle class="st3" cx="1.6" cy="8" r="1.6"/>
		<path class="st3" d="M2.4,11.4c-0.6,0.6-0.6,1.6,0,2.3s1.6,0.6,2.3,0c0.6-0.6,0.6-1.6,0-2.3C4,10.7,3,10.7,2.4,11.4z"/>
		<circle class="st3" cx="8" cy="14.4" r="1.6"/>
		<path class="st3" d="M11.4,11.4c-0.6,0.6-0.6,1.6,0,2.3c0.6,0.6,1.6,0.6,2.3,0c0.6-0.6,0.6-1.6,0-2.3C13,10.7,12,10.7,11.4,11.4z"
			/>
		<path class="st3" d="M14.4,6.4c-0.9,0-1.6,0.7-1.6,1.6c0,0.9,0.7,1.6,1.6,1.6C15.3,9.6,16,8.9,16,8C16,7.1,15.3,6.4,14.4,6.4z"/>
		<circle class="st3" cx="12.5" cy="3.5" r="1.6"/>
	</g>
</g>
</svg>
