<?xml version="1.0" encoding="utf-8"?>
<!-- Generator: Adobe Illustrator 22.1.0, SVG Export Plug-In . SVG Version: 6.00 Build 0)  -->
<svg version="1.1" id="图层_1" xmlns="http://www.w3.org/2000/svg" xmlns:xlink="http://www.w3.org/1999/xlink" x="0px" y="0px"
	 viewBox="0 0 16 16" style="enable-background:new 0 0 16 16;" xml:space="preserve">
<style type="text/css">
	.st0{clip-path:url(#SVGID_2_);}
</style>
<g>
	<g>
		<defs>
			<rect id="SVGID_1_" x="0.4" y="1.9" width="15.3" height="12.3"/>
		</defs>
		<clipPath id="SVGID_2_">
			<use xlink:href="#SVGID_1_"  style="overflow:visible;"/>
		</clipPath>
		<path class="st0" d="M5.7,8.4c0-0.1,0-0.3,0-0.4H1.9V7.2h4C5.9,7,6,6.7,6.2,6.5H1.9V5.7h4.8c0.2-0.3,0.5-0.5,0.8-0.8H1.9V4.2h7.6
			v0c0.1,0,0.3,0,0.4,0c0.4,0,0.8,0.1,1.1,0.2V2.9c0-0.6-0.5-1.1-1-1.1H1.4c-0.6,0-1,0.5-1,1.1v10.1c0,0.6,0.5,1.1,1,1.1H10
			c0.6,0,1-0.5,1-1.1v-0.6c-0.4,0.1-0.7,0.2-1.1,0.2C7.6,12.6,5.7,10.7,5.7,8.4L5.7,8.4z M15.6,12l-3.1-2c0.3-0.4,0.4-1,0.4-1.5
			c0-1.7-1.4-3-3.1-3c-1.7,0-3.1,1.4-3.1,3c0,1.7,1.4,3,3.1,3c0.8,0,1.5-0.3,2-0.8l3.2,2.1c0.1,0,0.2-0.1,0.4-0.3
			C15.6,12.3,15.7,12,15.6,12L15.6,12z M9.9,10.8c-1.3,0-2.3-1-2.3-2.3c0-1.3,1-2.3,2.3-2.3c1.3,0,2.3,1,2.3,2.3
			C12.2,9.7,11.1,10.8,9.9,10.8L9.9,10.8z M9.9,10.8"/>
	</g>
</g>
</svg>
