<?xml version="1.0" encoding="utf-8"?>
<!-- Generator: Adobe Illustrator 21.1.0, SVG Export Plug-In . SVG Version: 6.00 Build 0)  -->
<svg version="1.1" id="图层_1" xmlns="http://www.w3.org/2000/svg" xmlns:xlink="http://www.w3.org/1999/xlink" x="0px" y="0px"
	 viewBox="0 0 40 32" style="enable-background:new 0 0 40 32;" xml:space="preserve">
<style type="text/css">
	.st0{fill:#444444;}
</style>
<g>
	<path class="st0" d="M38.5,4.5v23h-37v-23H38.5 M39.5,3.5h-39v25h39V3.5L39.5,3.5z"/>
	<path class="st0" d="M0.5,3.5v9h9v-9H0.5z M7,8.5H5.5V10c0,0.3-0.2,0.5-0.5,0.5S4.5,10.3,4.5,10V8.5H3C2.7,8.5,2.5,8.3,2.5,8
		S2.7,7.5,3,7.5h1.5V6c0-0.3,0.2-0.5,0.5-0.5S5.5,5.7,5.5,6v1.5H7c0.3,0,0.5,0.2,0.5,0.5S7.3,8.5,7,8.5z"/>
</g>
</svg>
