<?xml version="1.0" encoding="UTF-8"?>
<svg width="16px" height="16px" viewBox="0 0 16 16" version="1.1" xmlns="http://www.w3.org/2000/svg" xmlns:xlink="http://www.w3.org/1999/xlink">
    <!-- Generator: Sketch 51.3 (57544) - http://www.bohemiancoding.com/sketch -->
    <title>Shape</title>
    <desc>Created with Sketch.</desc>
    <defs></defs>
    <g id="Symbols" stroke="none" stroke-width="1" fill="none" fill-rule="evenodd">
        <g id="次标题栏---1920" transform="translate(-1729.000000, -22.000000)" fill="#63656E" fill-rule="nonzero">
            <g id="SaaS标题栏">
                <g id="个人设置" transform="translate(1729.000000, 18.000000)">
                    <path d="M8,4 C3.58214286,4 0,7.58214286 0,12 C0,16.4178571 3.58214286,20 8,20 C12.4178571,20 16,16.4178571 16,12 C16,7.58214286 12.4178571,4 8,4 Z M8,16.6428571 C7.60535714,16.6428571 7.28571429,16.3232143 7.28571429,15.9285714 C7.28571429,15.5339286 7.60535714,15.2142857 8,15.2142857 C8.39464286,15.2142857 8.71428571,15.5339286 8.71428571,15.9285714 C8.71428571,16.3232143 8.39464286,16.6428571 8,16.6428571 Z M9.12321429,12.7232143 C8.79285714,12.85 8.57142857,13.1714286 8.57142857,13.5232143 L8.57142857,13.9285714 C8.57142857,14.0071429 8.50714286,14.0714286 8.42857143,14.0714286 L7.57142857,14.0714286 C7.49285714,14.0714286 7.42857143,14.0071429 7.42857143,13.9285714 L7.42857143,13.5446429 C7.42857143,13.1321429 7.54821429,12.725 7.78392857,12.3857143 C8.01428571,12.0535714 8.33571429,11.8 8.71428571,11.6553571 C9.32142857,11.4214286 9.71428571,10.9125 9.71428571,10.3571429 C9.71428571,9.56964286 8.94464286,8.92857143 8,8.92857143 C7.05535714,8.92857143 6.28571429,9.56964286 6.28571429,10.3571429 L6.28571429,10.4928571 C6.28571429,10.5714286 6.22142857,10.6357143 6.14285714,10.6357143 L5.28571429,10.6357143 C5.20714286,10.6357143 5.14285714,10.5714286 5.14285714,10.4928571 L5.14285714,10.3571429 C5.14285714,9.65535714 5.45,9 6.00714286,8.5125 C6.54285714,8.04285714 7.25,7.78571429 8,7.78571429 C8.75,7.78571429 9.45714286,8.04464286 9.99285714,8.5125 C10.55,9 10.8571429,9.65535714 10.8571429,10.3571429 C10.8571429,11.3892857 10.1767857,12.3178571 9.12321429,12.7232143 Z" id="Shape"></path>
                </g>
            </g>
        </g>
    </g>
</svg>