<?xml version="1.0" encoding="utf-8"?>
<!-- Generator: Adobe Illustrator 22.1.0, SVG Export Plug-In . SVG Version: 6.00 Build 0)  -->
<svg version="1.1" id="图层_1" xmlns="http://www.w3.org/2000/svg" xmlns:xlink="http://www.w3.org/1999/xlink" x="0px" y="0px"
	 viewBox="0 0 16 16" style="enable-background:new 0 0 16 16;" xml:space="preserve">
<style type="text/css">
	.st0{fill:#444444;}
</style>
<path class="st0" d="M8.1,0c-4.4,0-8,3.6-8,8s3.6,8,8,8s8-3.6,8-8S12.5,0,8.1,0z M13.1,9.7c-0.7,2.1-2.7,3.6-5.1,3.6
	c-2.9,0-5.3-2.3-5.4-5.2l3.9,2.2l-0.7,1C6.6,11.8,7.3,12,8.1,12c1.7,0,3.2-1.1,3.8-2.6l0,0C12.3,8.2,13.4,9.1,13.1,9.7z M9.4,5.8
	l0.7-1.3C9.6,4.2,8.8,4,8.1,4C6.3,4,4.9,5.1,4.3,6.6l0,0C4.1,7,3.2,7.2,3,6.2c0.7-2.1,2.7-3.6,5.1-3.6c2.9,0,5.3,2.3,5.4,5.3
	L9.4,5.8z"/>
</svg>
