<?xml version="1.0" encoding="utf-8"?>
<!-- Generator: Adobe Illustrator 21.1.0, SVG Export Plug-In . SVG Version: 6.00 Build 0)  -->
<svg version="1.1" id="图层_1" xmlns="http://www.w3.org/2000/svg" xmlns:xlink="http://www.w3.org/1999/xlink" x="0px" y="0px"
	 viewBox="0 0 16 16" style="enable-background:new 0 0 16 16;" xml:space="preserve">
<style type="text/css">
	.st0{fill:#444444;}
</style>
<path class="st0" d="M15.9,15.1l-3.6-3.6C13.3,10.3,14,8.8,14,7c0-3.9-3.1-7-7-7C3.1,0,0,3.1,0,7c0,3.9,3.1,7,7,7
	c1.8,0,3.3-0.7,4.6-1.7l3.6,3.6c0.1,0.1,0.2,0.1,0.4,0.1s0.3,0,0.4-0.1C16,15.7,16,15.3,15.9,15.1z M7,13c-3.3,0-6-2.7-6-6
	s2.7-6,6-6s6,2.7,6,6S10.3,13,7,13z"/>
</svg>
