<?xml version="1.0" encoding="utf-8"?>
<!-- Generator: Adobe Illustrator 22.1.0, SVG Export Plug-In . SVG Version: 6.00 Build 0)  -->
<svg version="1.1" id="图层_1" xmlns="http://www.w3.org/2000/svg" xmlns:xlink="http://www.w3.org/1999/xlink" x="0px" y="0px"
	 viewBox="0 0 16 16" style="enable-background:new 0 0 16 16;" xml:space="preserve">
<style type="text/css">
	.st0{fill:#444444;}
</style>
<g>
	<path class="st0" d="M8,0C3.6,0,0,3.6,0,8s3.6,8,8,8s8-3.6,8-8S12.4,0,8,0z M12.8,9.2c-0.3,1.3-0.6,2.6-0.9,3.9
		c-0.1,0.4-0.3,0.5-0.7,0.5c-0.5,0-1,0-1.5,0c-1.4,0-2.8,0-4.3,0c-0.6,0-0.7-0.1-0.9-0.6c-0.5-1.3-1-2.7-1.4-4
		C3,8.7,3.2,8.3,3.6,8.1C4,8,4.5,8.2,4.7,8.6C4.9,9,5.1,9.4,5.2,9.8c0.1,0.3,0.2,0.5,0.5,0.4c0.3-0.1,0.4-0.3,0.4-0.6
		c0-0.9,0-1.8,0-2.8V5.8c-0.8-0.3-1.3-1.1-1.3-2c0-1.2,1-2.2,2.2-2.2s2.2,1,2.2,2.2c0,0.9-0.5,1.7-1.3,2c0,0.5,0,0.9,0,1.4
		c0,0.5,0.1,0.7,0.7,0.7C9.7,8,10.9,8.1,12,8.2C12.7,8.2,13,8.5,12.8,9.2z"/>
	<path class="st0" d="M7,2.3c-0.2,0-0.3,0.1-0.3,0.3v1.3c0,0.2,0.1,0.3,0.3,0.3s0.3-0.1,0.3-0.3V2.6C7.4,2.4,7.2,2.3,7,2.3z"/>
	<path class="st0" d="M7,4.5c-0.2,0-0.3,0.1-0.3,0.3S6.9,5.2,7,5.2S7.4,5,7.4,4.8S7.2,4.5,7,4.5z"/>
</g>
</svg>
