<?xml version="1.0" encoding="utf-8"?>
<!-- Generator: Adobe Illustrator 22.1.0, SVG Export Plug-In . SVG Version: 6.00 Build 0)  -->
<svg version="1.1" id="图层_1" xmlns="http://www.w3.org/2000/svg" xmlns:xlink="http://www.w3.org/1999/xlink" x="0px" y="0px"
	 viewBox="0 0 16 16" style="enable-background:new 0 0 16 16;" xml:space="preserve">
<g>
	<g>
		<path d="M5.7,8.6C5.4,8.6,5.1,8.3,5.1,8c0-0.3,0.3-0.6,0.6-0.6h2v-3c0-0.3,0.3-0.6,0.6-0.6c0.3,0,0.6,0.3,0.6,0.6V8
			c0,0.3-0.3,0.6-0.6,0.6H5.7z M5.7,8.6"/>
		<path d="M15.2,9.5c-0.2,0-0.3-0.1-0.5-0.2c-0.1-0.1-0.2-0.3-0.1-0.5c0-0.3,0.1-0.6,0-0.8c-0.1-0.9-0.3-1.8-0.6-2.5
			c-0.3-0.8-0.8-1.6-1.4-2.1C11.4,2.1,9.8,1.4,8,1.4S4.6,2.1,3.4,3.3C3.1,3.6,2.8,4,2.6,4.3L3.7,4c0.1,0,0.1,0,0.2,0
			c0.3,0,0.5,0.2,0.6,0.4C4.6,4.7,4.4,5,4.1,5.1L1.5,5.9C1.4,6,1.3,6,1.3,6C1.2,6,1.1,5.9,1,5.9C0.8,5.8,0.7,5.6,0.7,5.5L0.2,2.8
			C0.1,2.5,0.3,2.2,0.7,2.1c0,0,0.1,0,0.1,0c0.3,0,0.5,0.2,0.6,0.5l0.2,1c0.3-0.4,0.6-0.8,0.9-1.1C3.2,1.8,4.1,1.2,5,0.8
			c1-0.4,2-0.6,3-0.6c1.1,0,2.1,0.2,3,0.6c0.9,0.4,1.8,1,2.5,1.7C14.3,3.2,14.8,4,15.2,5c0.4,1,0.6,2,0.6,3c0,0.3,0,0.6-0.1,0.9
			C15.7,9.2,15.5,9.5,15.2,9.5L15.2,9.5z M7.5,15.8C7.5,15.8,7.4,15.8,7.5,15.8c-0.9-0.1-1.7-0.3-2.5-0.6c-0.9-0.4-1.8-1-2.5-1.7
			C1.8,12.8,1.2,12,0.8,11c-0.2-0.4-0.3-0.7-0.4-1.1c0-0.2,0-0.4,0.1-0.5C0.7,9.3,0.8,9.2,1,9.2c0.3,0,0.5,0.2,0.6,0.5
			c0.3,1.1,0.9,2.2,1.7,3c0.6,0.6,1.2,1,1.9,1.3c0.7,0.3,1.5,0.5,2.2,0.6c0.3,0,0.6,0.3,0.6,0.6v0c0,0.2-0.1,0.3-0.2,0.4
			C7.8,15.7,7.6,15.8,7.5,15.8L7.5,15.8z M9.4,11.4c-0.3,0-0.6-0.3-0.6-0.6c0-0.3,0.3-0.6,0.6-0.6H15c0.3,0,0.6,0.3,0.6,0.6
			c0,0.3-0.3,0.6-0.6,0.6H9.4z M9.4,13.6c-0.3,0-0.6-0.3-0.6-0.6c0-0.3,0.3-0.6,0.6-0.6H15c0.3,0,0.6,0.3,0.6,0.6
			c0,0.3-0.3,0.6-0.6,0.6H9.4z M9.4,15.7c-0.3,0-0.6-0.3-0.6-0.6s0.3-0.6,0.6-0.6H15c0.3,0,0.6,0.3,0.6,0.6s-0.3,0.6-0.6,0.6H9.4z
			 M9.4,15.7"/>
	</g>
</g>
</svg>
