<?xml version="1.0" encoding="utf-8"?>
<!-- Generator: Adobe Illustrator 22.1.0, SVG Export Plug-In . SVG Version: 6.00 Build 0)  -->
<svg version="1.1" id="图层_1" xmlns="http://www.w3.org/2000/svg" xmlns:xlink="http://www.w3.org/1999/xlink" x="0px" y="0px"
	 viewBox="0 0 16 16" style="enable-background:new 0 0 16 16;" xml:space="preserve">
<g>
	<path d="M8,6.1c1.6,0,3-1.3,3-3c0-1.6-1.3-3-3-3c-1.6,0-3,1.3-3,3C5,4.7,6.4,6.1,8,6.1L8,6.1z M8,1.4c0.9,0,1.7,0.7,1.7,1.7
		C9.7,4,8.9,4.8,8,4.8C7.1,4.8,6.3,4,6.3,3.1C6.3,2.2,7.1,1.4,8,1.4L8,1.4z M13,8.5c-1.6,0-3,1.3-3,3c0,1.6,1.3,3,3,3
		c1.6,0,3-1.3,3-3C15.9,9.9,14.6,8.5,13,8.5L13,8.5z M13,13.2c-0.9,0-1.7-0.7-1.7-1.7c0-0.9,0.7-1.7,1.7-1.7c0.9,0,1.7,0.7,1.7,1.7
		C14.6,12.4,13.9,13.2,13,13.2L13,13.2z M6,11.5c0-1.6-1.3-3-3-3c-1.6,0-3,1.3-3,3c0,1.6,1.3,3,3,3C4.7,14.5,6,13.2,6,11.5L6,11.5z
		 M3,13.2c-0.9,0-1.7-0.7-1.7-1.7c0-0.9,0.7-1.7,1.7-1.7c0.9,0,1.7,0.7,1.7,1.7C4.7,12.4,3.9,13.2,3,13.2L3,13.2z M5.1,4.6
		C4.9,4.3,4.8,3.9,4.7,3.5c-1.7,1.1-2.8,2.9-3,5c0.4-0.2,0.8-0.3,1.2-0.3C3.1,6.7,3.9,5.5,5.1,4.6L5.1,4.6z M13.2,8.2
		c0.4,0,0.8,0.1,1.2,0.3c-0.1-2.2-1.3-4-3.1-5.1c0,0.4-0.2,0.8-0.3,1.2C12.1,5.4,13,6.7,13.2,8.2L13.2,8.2z M13.2,8.2"/>
	<path d="M10.3,13.5C9.6,13.8,8.9,14,8,14c-0.8,0-1.6-0.2-2.3-0.6c-0.2,0.3-0.5,0.6-0.9,0.8c0.9,0.6,2,0.9,3.2,0.9
		c1.1,0,2.2-0.3,3.2-0.8C10.8,14.1,10.5,13.8,10.3,13.5L10.3,13.5z M10.3,13.5"/>
</g>
</svg>
