<?xml version="1.0" encoding="utf-8"?>
<!-- Generator: Adobe Illustrator 22.1.0, SVG Export Plug-In . SVG Version: 6.00 Build 0)  -->
<svg version="1.1" id="图层_1" xmlns="http://www.w3.org/2000/svg" xmlns:xlink="http://www.w3.org/1999/xlink" x="0px" y="0px"
	 viewBox="0 0 16 16" style="enable-background:new 0 0 16 16;" xml:space="preserve">
<style type="text/css">
	.st0{fill:#444444;}
</style>
<path class="st0" d="M8,0C3.6,0,0,3.6,0,8s3.6,8,8,8s8-3.6,8-8S12.4,0,8,0z M8,12.8c-0.4,0-0.7-0.3-0.7-0.7c0-0.4,0.3-0.7,0.7-0.7
	s0.7,0.3,0.7,0.7C8.7,12.5,8.4,12.8,8,12.8z M8.7,9.7c0,0.4-0.3,0.7-0.7,0.7s-0.7-0.3-0.7-0.7V4.5c0-0.4,0.3-0.7,0.7-0.7
	s0.7,0.3,0.7,0.7V9.7z"/>
</svg>
